<svg width="512" height="512" viewBox="0 0 512 512" fill="none" xmlns="http://www.w3.org/2000/svg">
<g clip-path="url(#clip0_1_2)">
<path d="M240.485 259.277C313.155 265.506 381.632 290.42 440.327 322.947C417.967 397.69 367.657 471.741 257.255 518.109L260.757 521H0V463.151C16.2171 479.331 38.7618 488.35 64.4004 488.351C100.735 488.351 127.288 475.894 152.443 440.599C178.996 401.843 213.234 320.179 240.485 259.277ZM487.144 350.63C498.825 358.343 509.993 366.185 520.593 374.044V521H363.42C427.083 476.338 464.779 420.865 487.144 350.63ZM184.586 258.586C160.13 312.567 133.577 376.929 108.422 409.456C93.7483 427.45 82.5682 433.678 66.4971 433.678C44.1372 433.678 24.5723 417.068 24.5723 386.617C24.5725 327.1 82.569 266.199 184.586 258.586ZM303.942 0.407227C299.292 1.28345 294.394 2.00149 289.397 2.52246C260.05 4.59864 168.514 9.44238 131.48 9.44238C117.506 9.44238 97.2416 8.75036 79.0742 7.36621L81.8691 63.4238C98.6391 62.0397 118.205 59.9636 133.577 59.2715C165.719 57.1953 250.966 53.7348 278.916 52.3506C257.255 95.2586 230.703 155.469 206.247 210.142C111.775 212.516 37.3786 250.096 0 306.326V0.407227H303.942ZM520.593 303.657C514.303 299.952 507.808 296.224 501.118 292.497C508.804 252.357 512.997 208.065 515.792 158.929L459.193 152.7C460.591 172.078 459.892 195.608 459.193 216.37C457.796 232.98 456.398 250.281 452.904 268.274C397.005 241.976 332.021 219.83 261.448 212.218C290.796 147.856 321.541 77.265 341.105 46.1221C346.695 37.8175 352.984 30.8968 359.272 23.2842L331.104 0.407227H520.593V303.657Z" fill="black"/>
</g>
<defs>
<clipPath id="clip0_1_2">
<rect width="512" height="512" fill="white"/>
</clipPath>
</defs>
</svg>
